<svg xmlns="http://www.w3.org/2000/svg" xmlns:xlink="http://www.w3.org/1999/xlink" width="200" height="200" viewBox="0 0 200 200"><filter id="a" color-interpolation-filters="sRGB"><feFlood flood-opacity=".471" result="flood"/><feComposite in="flood" in2="SourceGraphic" operator="in" result="composite1"/><feGaussianBlur in="composite1" result="blur" stdDeviation="1"/><feOffset dx="0" dy="2" result="offset"/><feComposite in="SourceGraphic" in2="offset" operator="over" result="fbSourceGraphic"/><feColorMatrix in="fbSourceGraphic" result="fbSourceGraphicAlpha" values="0 0 0 -1 0 0 0 0 -1 0 0 0 0 -1 0 0 0 0 1 0"/><feFlood flood-opacity=".471" in="fbSourceGraphic" result="flood"/><feComposite in="fbSourceGraphic" in2="flood" operator="in" result="composite1"/><feGaussianBlur in="composite1" result="blur" stdDeviation="2"/><feOffset dx="0" dy="-2" result="offset"/><feComposite in="fbSourceGraphic" in2="offset" operator="over" result="composite2"/></filter><filter id="b" color-interpolation-filters="sRGB"><feFlood flood-opacity=".471" result="flood"/><feComposite in="flood" in2="SourceGraphic" operator="in" result="composite1"/><feGaussianBlur in="composite1" result="blur" stdDeviation="1"/><feOffset dx="2" dy="0" result="offset"/><feComposite in="SourceGraphic" in2="offset" operator="over" result="composite2"/></filter><linearGradient id="c" x1="195.916" x2="195.916" y1="134.847" y2="175.403" gradientUnits="userSpaceOnUse"><stop offset="0" stop-color="#dae70b"/><stop offset="1" stop-color="#38a943"/></linearGradient><linearGradient id="d" x1="187.494" x2="187.494" y1="138.271" y2="93.865" gradientUnits="userSpaceOnUse"><stop offset="0" stop-color="#ff8063"/><stop offset="1" stop-color="#f44158"/></linearGradient><linearGradient id="e" x1="221.104" x2="221.104" y1="113.688" y2="61.85" gradientUnits="userSpaceOnUse"><stop offset="0" stop-color="#ff526e"/><stop offset="1" stop-color="#fa445a"/></linearGradient><linearGradient id="f" x1="184.929" x2="184.929" y1="116.218" y2="63.739" gradientUnits="userSpaceOnUse"><stop offset="0" stop-color="#ff8387"/><stop offset="1" stop-color="#ff626c"/></linearGradient><linearGradient id="g" x1="197.992" x2="197.992" y1="73.906" y2="-.808" gradientUnits="userSpaceOnUse"><stop offset="0" stop-color="#d02038"/><stop offset="1" stop-color="#7d113d"/></linearGradient><filter id="h" width="1.26" height="1.389" x="-.13" y="-.195" color-interpolation-filters="sRGB"><feGaussianBlur stdDeviation="6.054"/></filter><filter id="i" width="1.355" height="1.53" x="-.177" y="-.265" color-interpolation-filters="sRGB"><feGaussianBlur stdDeviation="8.243"/></filter><g transform="translate(-99.252153 13.295218)"><path fill="#640e45" d="m197.99218-.8079822a93.687317 93.687317 0 0 0 -93.6875 93.6875032 93.687317 93.687317 0 0 0 18.94922 56.345699h149.4414a93.687317 93.687317 0 0 0 18.98438-56.345699 93.687317 93.687317 0 0 0 -93.6875-93.6875032z" filter="url(#b)"/><path fill="#3d0d57" d="m17.916016 52.859375a93.687317 93.687317 0 0 0 -15.0625004 50.916015 93.687317 93.687317 0 0 0 18.9492184 56.3457h149.441406a93.687317 93.687317 0 0 0 18.98438-56.3457 93.687317 93.687317 0 0 0 -12.62305-46.794921c-34.9869 9.048736-60.44322 28.081494-81.48047 51.744141.90283-.37359-25.02868-37.018304-81.375-50.250001 1.057163-1.91566 2.11202-3.779005 3.166016-5.615234z" transform="translate(101.45213 -10.895255)"/><g fill="#ff003c" filter="url(#h)" opacity=".829" transform="matrix(1.1108144 0 0 1.1108144 -22.482814 -15.226166)"><path d="m198.35263 67.289189c-.0517-.129388 25.32583 31.952992 25.32583 31.952992l-50.43012.14639z"/><path d="m236.54813 62.708835c-8.67253 24.877804-14.21782 49.130165-14.6209 72.354075h-40.0587c10.33392-33.72447 28.18634-62.501151 54.6796-72.354075z" opacity="1"/><path d="m160.20889 63.718065c27.7568 9.598177 37.52727 34.569806 47.88413 55.093645l-35.54046-.62107c-2.16262-18.564179-3.77338-37.243328-12.34367-54.472575z" opacity="1"/><path d="m144.4468 93.825881c13.03889 15.926959 24.42946 28.663489 27.99641 43.561439l55.55973.0116c-22.28113-18.08757-43.70036-33.74854-83.55614-43.573039z"/><path d="m184.83892 137.40492 43.16402-.006c4.50319-16.22035 18.4444-27.5723 28.02689-43.143089-28.39756 8.372409-67.08593 18.999959-71.19091 43.148839z" opacity="1"/></g><g fill="#ff003c" filter="url(#i)" transform="matrix(.93839151 0 0 .93839151 8.673569 4.12318)"><path d="m198.35263 67.289189c-.0517-.129388 25.32583 31.952992 25.32583 31.952992l-50.43012.14639z"/><path d="m236.54813 62.708835c-8.67253 24.877804-14.21782 49.130165-14.6209 72.354075h-40.0587c10.33392-33.72447 28.18634-62.501151 54.6796-72.354075z"/><path d="m160.20889 63.718065c27.7568 9.598177 37.52727 34.569806 47.88413 55.093645l-35.54046-.62107c-2.16262-18.564179-3.77338-37.243328-12.34367-54.472575z"/><path d="m144.4468 93.825881c13.03889 15.926959 24.42946 28.663489 27.99641 43.561439l55.55973.0116c-22.28113-18.08757-43.70036-33.74854-83.55614-43.573039z"/><path d="m184.83892 137.40492 43.16402-.006c4.50319-16.22035 18.4444-27.5723 28.02689-43.143089-28.39756 8.372409-67.08593 18.999959-71.19091 43.148839z"/></g><path fill="url(#g)" d="m198.32576 73.865797c-11.04897-21.625978-21.32025-44.039104-46.35969-62.601047 28.11946-15.182163 59.58192-19.1664624 91.27485-.409358-22.57162 15.272409-34.87284 39.684129-44.91516 63.010405z"/><ellipse cx="199.252" cy="154.908" fill="url(#c)" filter="url(#a)" rx="97.8" ry="20.21"/><path fill="#ffbab6" d="m198.35263 67.289189c-.0517-.129388 25.32583 31.952992 25.32583 31.952992l-50.43012.14639z"/><path fill="url(#e)" d="m236.54813 62.708835c-8.67253 24.877804-14.21782 49.130165-14.6209 72.354075h-40.0587c10.33392-33.72447 28.18634-62.501151 54.6796-72.354075z"/><path fill="url(#f)" d="m160.20889 63.718065c27.7568 9.598177 37.52727 34.569806 47.88413 55.093645l-35.54046-.62107c-2.16262-18.564179-3.77338-37.243328-12.34367-54.472575z"/><path fill="url(#d)" d="m144.4468 93.825881c13.03889 15.926959 24.42946 28.663489 27.99641 43.561439l55.55973.0116c-22.28113-18.08757-43.70036-33.74854-83.55614-43.573039z"/><path fill="#f43a38" d="m184.83892 137.40492 43.16402-.006c4.50319-16.22035 18.4444-27.5723 28.02689-43.143089-28.39756 8.372409-67.08593 18.999959-71.19091 43.148839z"/></g></svg>